<?xml version="1.0" encoding="utf-8" standalone="no"?><!DOCTYPE svg PUBLIC "-//W3C//DTD SVG 1.1//EN" "http://www.w3.org/Graphics/SVG/1.1/DTD/svg11.dtd">
<svg preserveAspectRatio="xMinYMin meet" width="100%" height="100%" viewBox="0 0 1920.000 1084.000"  version="1.1" xmlns="http://www.w3.org/2000/svg" xmlns:xlink="http://www.w3.org/1999/xlink">
  <desc>Matlab Figure Converted by PLOT2SVG written by Juerg Schwizer</desc>
  <g id="topgroup">
  <rect x="0" y="0" width="1920.000" height="1084.000" fill="#ffffff" stroke="none" />
  <g id ="ID000000">
  <clipPath id="ID000001">
    <rect x="249.600" y="467.230" width="1488.000" height="111.600"/>
  </clipPath>
      <polygon fill="#ffffff" fill-opacity="1.00" stroke="none" stroke-width="0.5pt" stroke-opacity="1.00" stroke-dasharray="none" points="249.600,578.830 1737.600,578.830 1737.600,467.230 249.600,467.230 "/>
      <polygon fill="#ffffff" fill-opacity="1.00" stroke="none" stroke-width="0.5pt" stroke-opacity="1.00" stroke-dasharray="none" points="249.600,578.830 1737.600,578.830 1737.600,578.830 249.600,578.830 "/>
      <polygon fill="#ffffff" fill-opacity="1.00" stroke="none" stroke-width="0.5pt" stroke-opacity="1.00" stroke-dasharray="none" points="249.600,578.830 249.600,578.830 249.600,467.230 249.600,467.230 "/>
    <g>
<g id="ID000002" clip-path="url(#ID000001)" >
      <polyline fill="none" stroke="#dfba69" stroke-width="3.0pt" stroke-dasharray="none" points="249.600,474.524 373.600,475.461 497.600,477.063 621.600,477.024 745.600,473.678 869.600,475.263 993.600,477.125 1117.600,484.587 1241.600,497.179 1365.600,515.815 1489.600,561.436 "/>
<g>
<circle cx="249.600" cy="474.524" r="4.167" fill="#dfba69" stroke="none" stroke-width="3.0pt" />
<circle cx="373.600" cy="475.461" r="4.167" fill="#dfba69" stroke="none" stroke-width="3.0pt" />
<circle cx="497.600" cy="477.063" r="4.167" fill="#dfba69" stroke="none" stroke-width="3.0pt" />
<circle cx="621.600" cy="477.024" r="4.167" fill="#dfba69" stroke="none" stroke-width="3.0pt" />
<circle cx="745.600" cy="473.678" r="4.167" fill="#dfba69" stroke="none" stroke-width="3.0pt" />
<circle cx="869.600" cy="475.263" r="4.167" fill="#dfba69" stroke="none" stroke-width="3.0pt" />
<circle cx="993.600" cy="477.125" r="4.167" fill="#dfba69" stroke="none" stroke-width="3.0pt" />
<circle cx="1117.600" cy="484.587" r="4.167" fill="#dfba69" stroke="none" stroke-width="3.0pt" />
<circle cx="1241.600" cy="497.179" r="4.167" fill="#dfba69" stroke="none" stroke-width="3.0pt" />
<circle cx="1365.600" cy="515.815" r="4.167" fill="#dfba69" stroke="none" stroke-width="3.0pt" />
<circle cx="1489.600" cy="561.436" r="4.167" fill="#dfba69" stroke="none" stroke-width="3.0pt" />
</g>
</g>
<g id="ID000003" >
</g>
<g id="ID000004" >
</g>
<g id="ID000005" >
</g>
    </g>
    <g>
      <polyline fill="none" stroke="#000000" stroke-width="0.5pt" stroke-dasharray="none" points="249.600,578.830 249.600,576.950 "/>
      <polyline fill="none" stroke="#000000" stroke-width="0.5pt" stroke-dasharray="none" points="745.600,578.830 745.600,576.950 "/>
      <polyline fill="none" stroke="#000000" stroke-width="0.5pt" stroke-dasharray="none" points="1241.600,578.830 1241.600,576.950 "/>
      <polyline fill="none" stroke="#000000" stroke-width="0.5pt" stroke-dasharray="none" points="1737.600,578.830 1737.600,576.950 "/>
      <polyline fill="none" stroke="#000000" stroke-width="0.5pt" stroke-dasharray="none" points="249.600,578.830 1737.600,578.830 "/>
  <g transform="translate(249.600,592.862)">
    <g transform="rotate(-0.0)">
      <text x="0.000" y="0.000" font-family="Helvetica" text-anchor="middle" font-size="10pt" fill="#000000" >0</text>
    </g>
  </g>
  <g transform="translate(745.600,592.862)">
    <g transform="rotate(-0.0)">
      <text x="0.000" y="0.000" font-family="Helvetica" text-anchor="middle" font-size="10pt" fill="#000000" >4</text>
    </g>
  </g>
  <g transform="translate(1241.600,592.862)">
    <g transform="rotate(-0.0)">
      <text x="0.000" y="0.000" font-family="Helvetica" text-anchor="middle" font-size="10pt" fill="#000000" >8</text>
    </g>
  </g>
  <g transform="translate(1737.600,592.862)">
    <g transform="rotate(-0.0)">
      <text x="0.000" y="0.000" font-family="Helvetica" text-anchor="middle" font-size="10pt" fill="#000000" >12</text>
    </g>
  </g>
      <polyline fill="none" stroke="#000000" stroke-width="0.5pt" stroke-dasharray="none" points="249.600,578.830 264.480,578.830 "/>
      <polyline fill="none" stroke="#000000" stroke-width="0.5pt" stroke-dasharray="none" points="249.600,541.630 264.480,541.630 "/>
      <polyline fill="none" stroke="#000000" stroke-width="0.5pt" stroke-dasharray="none" points="249.600,504.430 264.480,504.430 "/>
      <polyline fill="none" stroke="#000000" stroke-width="0.5pt" stroke-dasharray="none" points="249.600,467.230 264.480,467.230 "/>
      <polyline fill="none" stroke="#000000" stroke-width="0.5pt" stroke-dasharray="none" points="249.600,578.830 249.600,467.230 "/>
  <g transform="translate(219.840,587.330)">
    <g transform="rotate(-0.0)">
      <text x="0.000" y="0.000" font-family="Helvetica" text-anchor="end" font-size="10pt" fill="#000000" >10<tspan font-size="7.0pt" dy="-7.0pt">-10</tspan></text>
    </g>
  </g>
  <g transform="translate(219.840,550.130)">
    <g transform="rotate(-0.0)">
      <text x="0.000" y="0.000" font-family="Helvetica" text-anchor="end" font-size="10pt" fill="#000000" >10<tspan font-size="7.0pt" dy="-7.0pt">-6</tspan></text>
    </g>
  </g>
  <g transform="translate(219.840,512.930)">
    <g transform="rotate(-0.0)">
      <text x="0.000" y="0.000" font-family="Helvetica" text-anchor="end" font-size="10pt" fill="#000000" >10<tspan font-size="7.0pt" dy="-7.0pt">-2</tspan></text>
    </g>
  </g>
  <g transform="translate(219.840,475.730)">
    <g transform="rotate(-0.0)">
      <text x="0.000" y="0.000" font-family="Helvetica" text-anchor="end" font-size="10pt" fill="#000000" >10<tspan font-size="7.0pt" dy="-7.0pt">2</tspan></text>
    </g>
  </g>
      <polyline fill="none" stroke="#000000" stroke-width="0.5pt" stroke-dasharray="none" points="249.600,578.830 249.600,577.714 "/>
      <polyline fill="none" stroke="#000000" stroke-width="0.5pt" stroke-dasharray="none" points="249.600,578.830 249.600,577.714 "/>
      <polyline fill="none" stroke="#000000" stroke-width="0.5pt" stroke-dasharray="none" points="249.600,578.830 249.600,577.714 "/>
      <polyline fill="none" stroke="#000000" stroke-width="0.5pt" stroke-dasharray="none" points="249.600,578.830 249.600,578.830 "/>
    </g>
  </g>
  </g>
</svg>
